<svg width="60" height="60" viewBox="0 0 60 60" fill="none" xmlns="http://www.w3.org/2000/svg">
<path d="M30.75 18.225C31.25 17.775 31.85 17.5 32.5 17.5C33.175 17.5 33.75 17.775 34.275 18.225C34.75 18.75 35 19.35 35 20C35 20.675 34.75 21.25 34.275 21.775C33.75 22.25 33.175 22.5 32.5 22.5C31.85 22.5 31.25 22.25 30.75 21.775C30.275 21.25 30 20.675 30 20C30 19.35 30.275 18.75 30.75 18.225ZM24.5 29.925C24.5 29.925 29.925 25.625 31.9 25.45C33.75 25.3 33.375 27.425 33.2 28.525L33.175 28.675C32.825 30 32.4 31.6 31.975 33.125C31.025 36.6 30.1 40 30.325 40.625C30.575 41.475 32.125 40.4 33.25 39.65C33.4 39.55 33.525 39.45 33.65 39.375C33.65 39.375 33.85 39.175 34.05 39.45C34.1 39.525 34.15 39.6 34.2 39.65C34.425 40 34.55 40.125 34.25 40.325L34.15 40.375C33.6 40.75 31.25 42.4 30.3 43C29.275 43.675 25.35 45.925 25.95 41.55C26.475 38.475 27.175 35.825 27.725 33.75C28.75 30 29.2 28.3 26.9 29.775C25.975 30.325 25.425 30.675 25.1 30.9C24.825 31.1 24.8 31.1 24.625 30.775L24.55 30.625L24.425 30.425C24.25 30.175 24.25 30.15 24.5 29.925ZM55 30C55 43.75 43.75 55 30 55C16.25 55 5 43.75 5 30C5 16.25 16.25 5 30 5C43.75 5 55 16.25 55 30ZM50 30C50 18.95 41.05 10 30 10C18.95 10 10 18.95 10 30C10 41.05 18.95 50 30 50C41.05 50 50 41.05 50 30Z" fill="#545454"/>
</svg>
