<svg width="60" height="60" viewBox="0 0 60 60" fill="none" xmlns="http://www.w3.org/2000/svg">
<path d="M32.5 12.5C38.025 12.5 42.5 16.975 42.5 22.5C42.5 26.25 40.5 29.425 37.5 31.15V28.1C39.025 26.725 40 24.725 40 22.5C40 18.35 36.65 15 32.5 15C28.35 15 25 18.35 25 22.5C25 24.725 25.975 26.725 27.5 28.1V31.15C24.5 29.425 22.5 26.25 22.5 22.5C22.5 16.975 26.975 12.5 32.5 12.5ZM50 51.25C49.925 53.3 48.3 54.925 46.25 55H32.5C31.55 55 30.65 54.625 30 53.925L20 43.425L21.85 41.5C22.325 40.975 23 40.7 23.75 40.7H24.25L30 45V22.5C30 21.125 31.125 20 32.5 20C33.875 20 35 21.125 35 22.5V33.675L38.025 34L47.875 39.475C49.2 40.075 50 41.4 50 42.85V51.25ZM50 5H10C7.25 5 5 7.25 5 10V30C5 31.3261 5.52678 32.5979 6.46447 33.5355C7.40215 34.4732 8.67392 35 10 35H20V30H10V10H50V30H45V35H50V34.9L50.1 35C52.825 35 55 32.725 55 30V10C55 8.67392 54.4732 7.40215 53.5355 6.46447C52.5979 5.52678 51.3261 5 50 5Z" fill="#545454"/>
</svg>
