<svg width="60" height="60" viewBox="0 0 60 60" fill="none" xmlns="http://www.w3.org/2000/svg">
<g clip-path="url(#clip0_19_24)">
<path d="M34.7692 17.8462H11.3846C9.7769 17.8462 8.47613 19.1615 8.47613 20.7692L8.46152 38.3077C8.46152 39.9154 9.7769 41.2308 11.3846 41.2308H34.7692C36.3769 41.2308 37.6923 39.9154 37.6923 38.3077V20.7692C37.6923 19.1615 36.3769 17.8462 34.7692 17.8462ZM34.7692 38.3077H11.3846V23.6923L23.0769 31L34.7692 23.6923V38.3077ZM23.0769 28.0769L11.3846 20.7692H34.7692L23.0769 28.0769Z" fill="#545454"/>
<path d="M55 7.5H5C2.25 7.5 0 9.75 0 12.5V47.5C0 50.25 2.25 52.5 5 52.5H55C57.75 52.5 59.975 50.25 59.975 47.5L60 12.5C60 9.75 57.75 7.5 55 7.5ZM55 47.5H5V12.5H55V47.5ZM47.525 44.975L52.5 40L48.725 35H44.625C44.075 33.425 43.75 31.75 43.75 30C43.75 28.25 44.075 26.575 44.625 25H48.725L52.5 20L47.525 15.025C44.2077 17.5021 41.8071 21.0107 40.7 25C40.25 26.6 40 28.275 40 30C40 31.725 40.25 33.4 40.7 35C41.8137 38.9862 44.213 42.4929 47.525 44.975Z" fill="#545454"/>
</g>
<defs>
<clipPath id="clip0_19_24">
<rect width="60" height="60" fill="white"/>
</clipPath>
</defs>
</svg>
