<svg width="60" height="60" viewBox="0 0 60 48" fill="none" xmlns="http://www.w3.org/2000/svg">
<g clip-path="url(#clip0_19_16)">
<path d="M31.4531 0.374999L58.4531 15.375C59.8969 16.1812 60.4219 18.0094 59.6156 19.4531C58.8094 20.8969 56.9813 21.4219 55.5375 20.6156L30 6.43125L4.45313 20.625C3.00938 21.4312 1.18125 20.9063 0.375002 19.4625C-0.431248 18.0188 0.0937515 16.1906 1.5375 15.3844L28.5469 0.374999C29.4563 -0.131251 30.5531 -0.131251 31.4625 0.374999H31.4531ZM30 15C30.9946 15 31.9484 15.3951 32.6517 16.0983C33.3549 16.8016 33.75 17.7554 33.75 18.75C33.75 19.7446 33.3549 20.6984 32.6517 21.4016C31.9484 22.1049 30.9946 22.5 30 22.5C29.0054 22.5 28.0516 22.1049 27.3484 21.4016C26.6451 20.6984 26.25 19.7446 26.25 18.75C26.25 17.7554 26.6451 16.8016 27.3484 16.0983C28.0516 15.3951 29.0054 15 30 15ZM13.5 24C14.4946 24 15.4484 24.3951 16.1517 25.0983C16.8549 25.8016 17.25 26.7554 17.25 27.75C17.25 28.7446 16.8549 29.6984 16.1517 30.4016C15.4484 31.1049 14.4946 31.5 13.5 31.5C12.5054 31.5 11.5516 31.1049 10.8484 30.4016C10.1451 29.6984 9.75 28.7446 9.75 27.75C9.75 26.7554 10.1451 25.8016 10.8484 25.0983C11.5516 24.3951 12.5054 24 13.5 24ZM42.75 27.75C42.75 26.7554 43.1451 25.8016 43.8484 25.0983C44.5516 24.3951 45.5054 24 46.5 24C47.4946 24 48.4484 24.3951 49.1517 25.0983C49.8549 25.8016 50.25 26.7554 50.25 27.75C50.25 28.7446 49.8549 29.6984 49.1517 30.4016C48.4484 31.1049 47.4946 31.5 46.5 31.5C45.5054 31.5 44.5516 31.1049 43.8484 30.4016C43.1451 29.6984 42.75 28.7446 42.75 27.75ZM21.2719 46.0687L18.75 41.3906V45C18.75 46.6594 17.4094 48 15.75 48H11.25C9.59063 48 8.25 46.6594 8.25 45V41.3906L5.72813 46.0687C5.1375 47.1656 3.77813 47.5687 2.68125 46.9875C1.58438 46.4062 1.18125 45.0375 1.7625 43.9406L5.31563 37.35C6.75 34.6781 9.54375 33.0094 12.5813 33.0094H14.4094C15.9375 33.0094 17.4 33.4312 18.6656 34.1906L21.8156 28.35C23.25 25.6781 26.0438 24.0094 29.0813 24.0094H30.9094C33.9469 24.0094 36.7313 25.6781 38.175 28.35L41.325 34.1906C42.5906 33.4312 44.0531 33.0094 45.5813 33.0094H47.4094C50.4469 33.0094 53.2313 34.6781 54.675 37.35L58.2281 43.9406C58.8187 45.0375 58.4063 46.3969 57.3094 46.9875C56.2125 47.5781 54.8531 47.1656 54.2625 46.0687L51.75 41.3906V45C51.75 46.6594 50.4094 48 48.75 48H44.25C42.5906 48 41.25 46.6594 41.25 45V41.3906L38.7281 46.0687C38.1375 47.1656 36.7781 47.5687 35.6813 46.9875C34.5844 46.4062 34.1813 45.0375 34.7625 43.9406L38.1656 37.6125C38.0063 37.4531 37.8656 37.275 37.7625 37.0687L35.25 32.3906V37.5C35.25 39.1594 33.9094 40.5 32.25 40.5H27.75C26.0906 40.5 24.75 39.1594 24.75 37.5V32.3906L22.2281 37.0687C22.1156 37.275 21.9844 37.4531 21.825 37.6125L25.2281 43.9406C25.8188 45.0375 25.4063 46.3969 24.3094 46.9875C23.2125 47.5781 21.8531 47.1656 21.2625 46.0687H21.2719Z" fill="#545454"/>
</g>
<defs>
<clipPath id="clip0_19_16">
<rect width="60" height="48" fill="white"/>
</clipPath>
</defs>
</svg>
