<svg width="60" height="60" viewBox="0 0 60 60" fill="none" xmlns="http://www.w3.org/2000/svg">
<path d="M42.84 12L31.4 0.599991C31.0265 0.223453 30.5188 0.0106607 29.9885 0.00841036C29.4582 0.00616003 28.9486 0.214636 28.572 0.587991L28.56 0.599991L17.16 12H6C5.46957 12 4.96086 12.2107 4.58579 12.5858C4.21071 12.9609 4 13.4696 4 14V50C4 50.5304 4.21071 51.0391 4.58579 51.4142C4.96086 51.7893 5.46957 52 6 52H54C54.5304 52 55.0391 51.7893 55.4142 51.4142C55.7893 51.0391 56 50.5304 56 50V14C56 13.4696 55.7893 12.9609 55.4142 12.5858C55.0391 12.2107 54.5304 12 54 12H42.84ZM30 4.83999L37.16 12H22.84L30 4.83999ZM52 48H8V16H52V48ZM20 28C18.9391 28 17.9217 27.5786 17.1716 26.8284C16.4214 26.0783 16 25.0609 16 24C16 22.9391 16.4214 21.9217 17.1716 21.1716C17.9217 20.4214 18.9391 20 20 20C21.0609 20 22.0783 20.4214 22.8284 21.1716C23.5786 21.9217 24 22.9391 24 24C24 25.0609 23.5786 26.0783 22.8284 26.8284C22.0783 27.5786 21.0609 28 20 28ZM48 44H18L24 32L29 42L38 24L48 44Z" fill="#545454"/>
</svg>
