<svg width="45" height="45" viewBox="0 0 45 45" fill="none" xmlns="http://www.w3.org/2000/svg">
<path fill-rule="evenodd" clip-rule="evenodd" d="M5.625 40.0781C5.625 39.5187 5.84724 38.9822 6.24282 38.5866C6.63841 38.191 7.17493 37.9688 7.73437 37.9688H37.2656C37.8251 37.9688 38.3616 38.191 38.7572 38.5866C39.1528 38.9822 39.375 39.5187 39.375 40.0781C39.375 40.6376 39.1528 41.1741 38.7572 41.5697C38.3616 41.9653 37.8251 42.1875 37.2656 42.1875H7.73437C7.17493 42.1875 6.63841 41.9653 6.24282 41.5697C5.84724 41.1741 5.625 40.6376 5.625 40.0781ZM9.84375 30.9319V25.6275L13.4719 22.0894L18.5625 27.2475L14.9962 30.9319H9.84375ZM21.5016 24.2156L34.7625 10.53C34.8945 10.3935 34.9975 10.2317 35.0653 10.0543C35.1331 9.87691 35.1642 9.68763 35.1569 9.49787C35.1495 9.30812 35.1038 9.12182 35.0225 8.95021C34.9412 8.77861 34.8259 8.62525 34.6837 8.49938L31.8431 5.98219L34.6416 2.82376L37.4822 5.34094C38.051 5.84482 38.5118 6.45874 38.8369 7.14562C39.1619 7.83251 39.3443 8.57813 39.3733 9.33749C39.4022 10.0968 39.2769 10.8542 39.0051 11.5638C38.7332 12.2734 38.3204 12.9206 37.7916 13.4663L16.7822 35.1506H5.625V23.85L26.9831 3.00938C28.0001 2.01672 29.3551 1.4458 30.7759 1.41137C32.1966 1.37693 33.5777 1.88154 34.6416 2.82376L31.8431 5.98219C31.5775 5.74706 31.2327 5.62104 30.878 5.62938C30.5234 5.63773 30.1849 5.77983 29.9306 6.02719L16.4897 19.1419L21.5016 24.2156Z" fill="#545454"/>
</svg>
