<svg width="60" height="60" viewBox="0 0 60 60" fill="none" xmlns="http://www.w3.org/2000/svg">
<path d="M15 47.5H22.5V32.5H37.5V47.5H45V25L30 13.75L15 25V47.5ZM15 52.5C13.625 52.5 12.4475 52.01 11.4675 51.03C10.4875 50.05 9.99834 48.8733 10 47.5V25C10 24.2083 10.1775 23.4583 10.5325 22.75C10.8875 22.0417 11.3767 21.4583 12 21L27 9.75C27.4583 9.41667 27.9375 9.16667 28.4375 9C28.9375 8.83333 29.4583 8.75 30 8.75C30.5417 8.75 31.0625 8.83333 31.5625 9C32.0625 9.16667 32.5417 9.41667 33 9.75L48 21C48.625 21.4583 49.115 22.0417 49.47 22.75C49.825 23.4583 50.0017 24.2083 50 25V47.5C50 48.875 49.51 50.0525 48.53 51.0325C47.55 52.0125 46.3733 52.5017 45 52.5H32.5V37.5H27.5V52.5H15Z" fill="#545454"/>
</svg>
