<svg width="45" height="45" viewBox="0 0 45 45" fill="none" xmlns="http://www.w3.org/2000/svg">
<path d="M20.625 13.125V16.875H24.375V13.125H20.625ZM26.25 31.875V28.125H24.375V20.625H18.75V24.375H20.625V28.125H18.75V31.875H26.25ZM41.25 22.5C41.25 32.8125 32.8125 41.25 22.5 41.25C12.1875 41.25 3.75 32.8125 3.75 22.5C3.75 12.1875 12.1875 3.75 22.5 3.75C32.8125 3.75 41.25 12.1875 41.25 22.5ZM37.5 22.5C37.5 14.2125 30.7875 7.5 22.5 7.5C14.2125 7.5 7.5 14.2125 7.5 22.5C7.5 30.7875 14.2125 37.5 22.5 37.5C30.7875 37.5 37.5 30.7875 37.5 22.5Z" fill="#222222"/>
</svg>
