<svg width="65" height="65" viewBox="0 0 65 65" fill="none" xmlns="http://www.w3.org/2000/svg">
<path d="M37.2083 25.9792V21.375C38.6979 20.7431 40.2218 20.2691 41.78 19.9531C43.3382 19.6372 44.974 19.4792 46.6875 19.4792C47.8611 19.4792 49.0122 19.5694 50.1406 19.75C51.2691 19.9306 52.375 20.1562 53.4583 20.4271V24.7604C52.375 24.3542 51.2799 24.049 50.1731 23.845C49.0663 23.641 47.9044 23.5399 46.6875 23.5417C44.9722 23.5417 43.3247 23.7565 41.7448 24.1862C40.1649 24.616 38.6528 25.2136 37.2083 25.9792ZM37.2083 40.875V36.2708C38.6979 35.6389 40.2218 35.1649 41.78 34.849C43.3382 34.533 44.974 34.375 46.6875 34.375C47.8611 34.375 49.0122 34.4653 50.1406 34.6458C51.2691 34.8264 52.375 35.0521 53.4583 35.3229V39.6562C52.375 39.25 51.2799 38.9449 50.1731 38.7408C49.0663 38.5368 47.9044 38.4357 46.6875 38.4375C44.9722 38.4375 43.3247 38.6406 41.7448 39.0469C40.1649 39.4531 38.6528 40.0625 37.2083 40.875ZM37.2083 33.4271V28.8229C38.6979 28.191 40.2218 27.717 41.78 27.401C43.3382 27.0851 44.974 26.9271 46.6875 26.9271C47.8611 26.9271 49.0122 27.0174 50.1406 27.1979C51.2691 27.3785 52.375 27.6042 53.4583 27.875V32.2083C52.375 31.8021 51.2799 31.4969 50.1731 31.2929C49.0663 31.0889 47.9044 30.9878 46.6875 30.9896C44.9722 30.9896 43.3247 31.2044 41.7448 31.6342C40.1649 32.0639 38.6528 32.6615 37.2083 33.4271ZM16.8958 42.5C19.0174 42.5 21.0829 42.7374 23.0925 43.2123C25.1021 43.6872 27.099 44.3976 29.0833 45.3437V18.6667C27.2326 17.5833 25.2691 16.7708 23.1927 16.2292C21.1163 15.6875 19.0174 15.4167 16.8958 15.4167C15.2708 15.4167 13.6567 15.5747 12.0533 15.8906C10.45 16.2066 8.90444 16.6806 7.41667 17.3125V44.125C8.99653 43.5833 10.5656 43.1771 12.1237 42.9062C13.6819 42.6354 15.2726 42.5 16.8958 42.5ZM34.5 45.3437C36.4861 44.3958 38.4831 43.6844 40.4908 43.2096C42.4986 42.7347 44.5642 42.4982 46.6875 42.5C48.3125 42.5 49.9041 42.6354 51.4623 42.9062C53.0205 43.1771 54.5886 43.5833 56.1667 44.125V17.3125C54.6771 16.6806 53.1306 16.2066 51.5273 15.8906C49.924 15.5747 48.3107 15.4167 46.6875 15.4167C44.566 15.4167 42.467 15.6875 40.3906 16.2292C38.3142 16.7708 36.3507 17.5833 34.5 18.6667V45.3437ZM31.7917 53.3333C29.625 51.6181 27.2778 50.2865 24.75 49.3385C22.2222 48.3906 19.6042 47.9167 16.8958 47.9167C14.5035 47.9167 11.9983 48.3681 9.38021 49.2708C6.76215 50.1736 4.30208 51.5729 2 53.4687V14.1979C3.98611 12.8438 6.3225 11.8056 9.00917 11.0833C11.6958 10.3611 14.3247 10 16.8958 10C19.5139 10 22.076 10.3385 24.5821 11.0156C27.0882 11.6927 29.4914 12.7083 31.7917 14.0625C34.0937 12.7083 36.4978 11.6927 39.004 11.0156C41.5101 10.3385 44.0712 10 46.6875 10C49.2604 10 51.8902 10.3611 54.5769 11.0833C57.2635 11.8056 59.599 12.8438 61.5833 14.1979V53.4687C59.3264 51.5729 56.8772 50.1736 54.2356 49.2708C51.5941 48.3681 49.0781 47.9167 46.6875 47.9167C43.9792 47.9167 41.3611 48.3906 38.8333 49.3385C36.3056 50.2865 33.9583 51.6181 31.7917 53.3333Z" fill="#545454"/>
</svg>
