<svg width="60" height="60" viewBox="0 0 60 60" fill="none" xmlns="http://www.w3.org/2000/svg">
<path d="M11.25 18.75C10.7527 18.75 10.2758 18.9475 9.92418 19.2992C9.57254 19.6508 9.375 20.1277 9.375 20.625C9.375 21.1223 9.57254 21.5992 9.92418 21.9508C10.2758 22.3025 10.7527 22.5 11.25 22.5H45C45.4973 22.5 45.9742 22.3025 46.3258 21.9508C46.6775 21.5992 46.875 21.1223 46.875 20.625C46.875 20.1277 46.6775 19.6508 46.3258 19.2992C45.9742 18.9475 45.4973 18.75 45 18.75H11.25ZM10.3125 26.25C10.0639 26.25 9.8254 26.3488 9.64959 26.5246C9.47377 26.7004 9.375 26.9389 9.375 27.1875C9.375 27.4361 9.47377 27.6746 9.64959 27.8504C9.8254 28.0262 10.0639 28.125 10.3125 28.125H45.9375C46.1861 28.125 46.4246 28.0262 46.6004 27.8504C46.7762 27.6746 46.875 27.4361 46.875 27.1875C46.875 26.9389 46.7762 26.7004 46.6004 26.5246C46.4246 26.3488 46.1861 26.25 45.9375 26.25H10.3125ZM35.625 32.8125C35.625 32.5639 35.7238 32.3254 35.8996 32.1496C36.0754 31.9738 36.3139 31.875 36.5625 31.875H45.9375C46.1861 31.875 46.4246 31.9738 46.6004 32.1496C46.7762 32.3254 46.875 32.5639 46.875 32.8125C46.875 33.0611 46.7762 33.2996 46.6004 33.4754C46.4246 33.6512 46.1861 33.75 45.9375 33.75H36.5625C36.3139 33.75 36.0754 33.6512 35.8996 33.4754C35.7238 33.2996 35.625 33.0611 35.625 32.8125ZM36.5625 37.5C36.3139 37.5 36.0754 37.5988 35.8996 37.7746C35.7238 37.9504 35.625 38.1889 35.625 38.4375C35.625 38.6861 35.7238 38.9246 35.8996 39.1004C36.0754 39.2762 36.3139 39.375 36.5625 39.375H45.9375C46.1861 39.375 46.4246 39.2762 46.6004 39.1004C46.7762 38.9246 46.875 38.6861 46.875 38.4375C46.875 38.1889 46.7762 37.9504 46.6004 37.7746C46.4246 37.5988 46.1861 37.5 45.9375 37.5H36.5625ZM35.625 44.0625C35.625 43.8139 35.7238 43.5754 35.8996 43.3996C36.0754 43.2238 36.3139 43.125 36.5625 43.125H45.9375C46.1861 43.125 46.4246 43.2238 46.6004 43.3996C46.7762 43.5754 46.875 43.8139 46.875 44.0625C46.875 44.3111 46.7762 44.5496 46.6004 44.7254C46.4246 44.9012 46.1861 45 45.9375 45H36.5625C36.3139 45 36.0754 44.9012 35.8996 44.7254C35.7238 44.5496 35.625 44.3111 35.625 44.0625ZM36.5625 48.75C36.3139 48.75 36.0754 48.8488 35.8996 49.0246C35.7238 49.2004 35.625 49.4389 35.625 49.6875C35.625 49.9361 35.7238 50.1746 35.8996 50.3504C36.0754 50.5262 36.3139 50.625 36.5625 50.625H45.9375C46.1861 50.625 46.4246 50.5262 46.6004 50.3504C46.7762 50.1746 46.875 49.9361 46.875 49.6875C46.875 49.4389 46.7762 49.2004 46.6004 49.0246C46.4246 48.8488 46.1861 48.75 45.9375 48.75H36.5625ZM9.375 35.625C9.375 34.6304 9.77009 33.6766 10.4733 32.9734C11.1766 32.2701 12.1304 31.875 13.125 31.875H28.125C29.1196 31.875 30.0734 32.2701 30.7766 32.9734C31.4799 33.6766 31.875 34.6304 31.875 35.625V46.875C31.875 47.8696 31.4799 48.8234 30.7766 49.5266C30.0734 50.2299 29.1196 50.625 28.125 50.625H13.125C12.1304 50.625 11.1766 50.2299 10.4733 49.5266C9.77009 48.8234 9.375 47.8696 9.375 46.875V35.625Z" fill="#545454"/>
<path d="M15 7.5C14.0054 7.5 13.0516 7.89509 12.3483 8.59835C11.6451 9.30161 11.25 10.2554 11.25 11.25H7.42875C4.2225 11.25 1.875 13.9087 1.875 16.875V50.625C1.875 54.6263 5.03062 58.125 9.23062 58.125H54.4069C55.3959 58.1166 56.3416 57.7178 57.0379 57.0154C57.7343 56.3131 58.125 55.3641 58.125 54.375V11.25C58.125 10.2554 57.7299 9.30161 57.0266 8.59835C56.3234 7.89509 55.3696 7.5 54.375 7.5H15ZM48.8213 15C49.6838 15 50.4075 15.63 50.5838 16.4738C50.61 16.6031 50.625 16.7362 50.625 16.875V50.625C50.625 51.6196 51.0201 52.5734 51.7234 53.2766C52.4266 53.9799 53.3804 54.375 54.375 54.375H9.23062C7.23937 54.375 5.625 52.6969 5.625 50.625V16.875C5.625 15.84 6.43125 15 7.42875 15H48.8213Z" fill="#545454"/>
</svg>
