<svg width="45" height="45" viewBox="0 0 45 45" fill="none" xmlns="http://www.w3.org/2000/svg">
<path d="M14.0625 2.8125C14.4355 2.8125 14.7931 2.96066 15.0569 3.22438C15.3206 3.4881 15.4688 3.84579 15.4688 4.21875V5.625H21.0938V4.21875C21.0938 3.84579 21.2419 3.4881 21.5056 3.22438C21.7694 2.96066 22.127 2.8125 22.5 2.8125C22.873 2.8125 23.2306 2.96066 23.4944 3.22438C23.7581 3.4881 23.9062 3.84579 23.9062 4.21875V5.625H29.5312V4.21875C29.5312 3.84579 29.6794 3.4881 29.9431 3.22438C30.2069 2.96066 30.5645 2.8125 30.9375 2.8125C31.3105 2.8125 31.6681 2.96066 31.9319 3.22438C32.1956 3.4881 32.3438 3.84579 32.3438 4.21875V5.625C33.4626 5.625 34.5357 6.06947 35.3269 6.86064C36.118 7.65181 36.5625 8.72487 36.5625 9.84375V16.9762C35.5542 17.1516 34.5952 17.541 33.75 18.1181V9.84375C33.75 9.47079 33.6018 9.1131 33.3381 8.84938C33.0744 8.58566 32.7167 8.4375 32.3438 8.4375H12.6562C12.2833 8.4375 11.9256 8.58566 11.6619 8.84938C11.3982 9.1131 11.25 9.47079 11.25 9.84375V37.9688C11.25 38.3417 11.3982 38.6994 11.6619 38.9631C11.9256 39.2268 12.2833 39.375 12.6562 39.375H17.0072V39.3806C16.7673 40.3125 16.8344 41.2968 17.1984 42.1875H12.6562C11.5374 42.1875 10.4643 41.743 9.67314 40.9519C8.88197 40.1607 8.4375 39.0876 8.4375 37.9688V9.84375C8.4375 8.72487 8.88197 7.65181 9.67314 6.86064C10.4643 6.06947 11.5374 5.625 12.6562 5.625V4.21875C12.6562 3.84579 12.8044 3.4881 13.0681 3.22438C13.3319 2.96066 13.6895 2.8125 14.0625 2.8125ZM28.125 22.5C28.4259 22.5 28.7044 22.5956 28.935 22.7559L26.3756 25.3125H16.875C16.502 25.3125 16.1444 25.1643 15.8806 24.9006C15.6169 24.6369 15.4688 24.2792 15.4688 23.9062C15.4688 23.5333 15.6169 23.1756 15.8806 22.9119C16.1444 22.6482 16.502 22.5 16.875 22.5H28.125ZM19.6762 32.1609C19.6319 31.8224 19.4658 31.5116 19.2092 31.2865C18.9525 31.0614 18.6227 30.9373 18.2812 30.9375H16.875C16.502 30.9375 16.1444 31.0857 15.8806 31.3494C15.6169 31.6131 15.4688 31.9708 15.4688 32.3438C15.4688 32.7167 15.6169 33.0744 15.8806 33.3381C16.1444 33.6018 16.502 33.75 16.875 33.75H18.2812C18.4313 33.7504 18.5803 33.7266 18.7228 33.6797C18.9956 33.1481 19.3134 32.6391 19.6762 32.1609ZM16.875 14.0625C16.502 14.0625 16.1444 14.2107 15.8806 14.4744C15.6169 14.7381 15.4688 15.0958 15.4688 15.4688C15.4688 15.8417 15.6169 16.1994 15.8806 16.4631C16.1444 16.7268 16.502 16.875 16.875 16.875H28.125C28.498 16.875 28.8556 16.7268 29.1194 16.4631C29.3831 16.1994 29.5312 15.8417 29.5312 15.4688C29.5312 15.0958 29.3831 14.7381 29.1194 14.4744C28.8556 14.2107 28.498 14.0625 28.125 14.0625H16.875ZM34.7006 20.9672C35.5238 20.1441 36.6401 19.6816 37.8042 19.6816C38.9683 19.6816 40.0847 20.1441 40.9078 20.9672C41.7309 21.7903 42.1934 22.9067 42.1934 24.0708C42.1934 25.2349 41.7309 26.3512 40.9078 27.1744L28.845 39.2344C27.8443 40.2358 26.5902 40.9465 25.2169 41.2903L21.8109 42.1425C21.5234 42.2146 21.2221 42.2109 20.9364 42.1319C20.6507 42.0528 20.3903 41.9011 20.1807 41.6915C19.9711 41.4819 19.8194 41.2215 19.7403 40.9358C19.6613 40.6501 19.6576 40.3488 19.7297 40.0613L20.5847 36.6581C20.9278 35.2828 21.6366 34.0284 22.6378 33.03L34.7006 20.9672Z" fill="#545454"/>
</svg>
