<svg width="60" height="60" viewBox="0 0 60 60" fill="none" xmlns="http://www.w3.org/2000/svg">
<path d="M12.5 55H47.5C50.2575 55 52.5 52.7575 52.5 50V22.5C52.5 21.837 52.2366 21.2011 51.7678 20.7322C51.2989 20.2634 50.663 20 50 20H42.5V17.5C42.5 10.6075 36.8925 5 30 5C23.1075 5 17.5 10.6075 17.5 17.5V20H10C9.33696 20 8.70107 20.2634 8.23223 20.7322C7.76339 21.2011 7.5 21.837 7.5 22.5V50C7.5 52.7575 9.7425 55 12.5 55ZM22.5 17.5C22.5 13.365 25.865 10 30 10C34.135 10 37.5 13.365 37.5 17.5V20H22.5V17.5ZM12.5 25H17.5V30H22.5V25H37.5V30H42.5V25H47.5L47.505 50H12.5V25Z" fill="#545454"/>
</svg>
