<svg width="30" height="30" viewBox="0 0 39 39" fill="none" xmlns="http://www.w3.org/2000/svg">
<path d="M17.625 30.75H21.375V27H17.625V30.75ZM19.5 0.75C17.0377 0.75 14.5995 1.23498 12.3247 2.17726C10.0498 3.11953 7.98285 4.50065 6.24175 6.24175C2.72544 9.75806 0.75 14.5272 0.75 19.5C0.75 24.4728 2.72544 29.2419 6.24175 32.7583C7.98285 34.4994 10.0498 35.8805 12.3247 36.8227C14.5995 37.765 17.0377 38.25 19.5 38.25C24.4728 38.25 29.2419 36.2746 32.7583 32.7583C36.2746 29.2419 38.25 24.4728 38.25 19.5C38.25 17.0377 37.765 14.5995 36.8227 12.3247C35.8805 10.0498 34.4994 7.98285 32.7583 6.24175C31.0172 4.50065 28.9502 3.11953 26.6753 2.17726C24.4005 1.23498 21.9623 0.75 19.5 0.75ZM19.5 34.5C11.2313 34.5 4.5 27.7687 4.5 19.5C4.5 11.2313 11.2313 4.5 19.5 4.5C27.7687 4.5 34.5 11.2313 34.5 19.5C34.5 27.7687 27.7687 34.5 19.5 34.5ZM19.5 8.25C17.5109 8.25 15.6032 9.04018 14.1967 10.4467C12.7902 11.8532 12 13.7609 12 15.75H15.75C15.75 14.7554 16.1451 13.8016 16.8484 13.0984C17.5516 12.3951 18.5054 12 19.5 12C20.4946 12 21.4484 12.3951 22.1516 13.0984C22.8549 13.8016 23.25 14.7554 23.25 15.75C23.25 19.5 17.625 19.0312 17.625 25.125H21.375C21.375 20.9062 27 20.4375 27 15.75C27 13.7609 26.2098 11.8532 24.8033 10.4467C23.3968 9.04018 21.4891 8.25 19.5 8.25Z" fill="#70985E"/>
</svg>
