<svg width="63" height="63" viewBox="0 0 63 63" fill="none" xmlns="http://www.w3.org/2000/svg">
<path d="M38.7292 26.25C41.265 26.25 43.323 28.308 43.323 30.8438V43.3099C43.323 46.4434 42.0782 49.4487 39.8624 51.6644C37.6467 53.8802 34.6414 55.125 31.5079 55.125C28.3743 55.125 25.3691 53.8802 23.1533 51.6644C20.9376 49.4487 19.6927 46.4434 19.6927 43.3099V30.8438C19.6927 28.308 21.7481 26.25 24.2865 26.25H38.7292ZM38.7292 30.1875H24.2865C24.1125 30.1875 23.9455 30.2566 23.8225 30.3797C23.6994 30.5028 23.6302 30.6697 23.6302 30.8438V43.3099C23.6302 45.3992 24.4602 47.4029 25.9376 48.8802C27.4149 50.3575 29.4186 51.1875 31.5079 51.1875C33.5972 51.1875 35.6009 50.3575 37.0782 48.8802C38.5555 47.4029 39.3855 45.3992 39.3855 43.3099V30.8438C39.3855 30.6697 39.3164 30.5028 39.1933 30.3797C39.0702 30.2566 38.9033 30.1875 38.7292 30.1875ZM9.84375 26.25H18.7189C17.7928 27.3685 17.2272 28.7413 17.0966 30.1875H9.84375C9.6697 30.1875 9.50278 30.2566 9.37971 30.3797C9.25664 30.5028 9.1875 30.6697 9.1875 30.8438V39.3724C9.18733 40.3643 9.41195 41.3434 9.84447 42.2361C10.277 43.1288 10.9062 43.9118 11.6847 44.5265C12.4633 45.1411 13.3711 45.5713 14.3398 45.7848C15.3085 45.9982 16.3129 45.9894 17.2777 45.759C17.5009 47.082 17.9077 48.3446 18.4669 49.518C16.911 49.9342 15.2802 49.9871 13.7006 49.6724C12.1211 49.3577 10.6351 48.684 9.35746 47.7032C8.07987 46.7225 7.04495 45.4611 6.33272 44.0166C5.62049 42.572 5.25003 40.983 5.25 39.3724V30.8438C5.25 28.308 7.308 26.25 9.84375 26.25ZM44.2969 26.25H53.1562C55.692 26.25 57.75 28.308 57.75 30.8438V39.375C57.7504 40.9846 57.3807 42.5727 56.6695 44.0166C55.9584 45.4605 54.9248 46.7216 53.6486 47.7025C52.3724 48.6833 50.8879 49.3576 49.3096 49.6734C47.7313 49.9891 46.1015 49.9377 44.5462 49.5232C45.108 48.3472 45.5149 47.0846 45.7406 45.7616C46.7042 45.9894 47.7069 45.9961 48.6734 45.7813C49.64 45.5666 50.5455 45.1359 51.3219 44.5215C52.0984 43.9071 52.7258 43.125 53.1572 42.2337C53.5885 41.3425 53.8125 40.3651 53.8125 39.375V30.8438C53.8125 30.6697 53.7434 30.5028 53.6203 30.3797C53.4972 30.2566 53.3303 30.1875 53.1562 30.1875H45.9191C45.7886 28.7413 45.223 27.3685 44.2969 26.25ZM31.5 7.875C33.5886 7.875 35.5916 8.70469 37.0685 10.1815C38.5453 11.6584 39.375 13.6614 39.375 15.75C39.375 17.8386 38.5453 19.8416 37.0685 21.3185C35.5916 22.7953 33.5886 23.625 31.5 23.625C29.4114 23.625 27.4084 22.7953 25.9315 21.3185C24.4547 19.8416 23.625 17.8386 23.625 15.75C23.625 13.6614 24.4547 11.6584 25.9315 10.1815C27.4084 8.70469 29.4114 7.875 31.5 7.875ZM48.5625 10.5C50.303 10.5 51.9722 11.1914 53.2029 12.4221C54.4336 13.6528 55.125 15.322 55.125 17.0625C55.125 18.803 54.4336 20.4722 53.2029 21.7029C51.9722 22.9336 50.303 23.625 48.5625 23.625C46.822 23.625 45.1528 22.9336 43.9221 21.7029C42.6914 20.4722 42 18.803 42 17.0625C42 15.322 42.6914 13.6528 43.9221 12.4221C45.1528 11.1914 46.822 10.5 48.5625 10.5ZM14.4375 10.5C16.178 10.5 17.8472 11.1914 19.0779 12.4221C20.3086 13.6528 21 15.322 21 17.0625C21 18.803 20.3086 20.4722 19.0779 21.7029C17.8472 22.9336 16.178 23.625 14.4375 23.625C12.697 23.625 11.0278 22.9336 9.79711 21.7029C8.5664 20.4722 7.875 18.803 7.875 17.0625C7.875 15.322 8.5664 13.6528 9.79711 12.4221C11.0278 11.1914 12.697 10.5 14.4375 10.5ZM31.5 11.8125C30.4557 11.8125 29.4542 12.2273 28.7158 12.9658C27.9773 13.7042 27.5625 14.7057 27.5625 15.75C27.5625 16.7943 27.9773 17.7958 28.7158 18.5342C29.4542 19.2727 30.4557 19.6875 31.5 19.6875C32.5443 19.6875 33.5458 19.2727 34.2842 18.5342C35.0227 17.7958 35.4375 16.7943 35.4375 15.75C35.4375 14.7057 35.0227 13.7042 34.2842 12.9658C33.5458 12.2273 32.5443 11.8125 31.5 11.8125ZM48.5625 14.4375C47.8663 14.4375 47.1986 14.7141 46.7063 15.2063C46.2141 15.6986 45.9375 16.3663 45.9375 17.0625C45.9375 17.7587 46.2141 18.4264 46.7063 18.9187C47.1986 19.4109 47.8663 19.6875 48.5625 19.6875C49.2587 19.6875 49.9264 19.4109 50.4187 18.9187C50.9109 18.4264 51.1875 17.7587 51.1875 17.0625C51.1875 16.3663 50.9109 15.6986 50.4187 15.2063C49.9264 14.7141 49.2587 14.4375 48.5625 14.4375ZM14.4375 14.4375C13.7413 14.4375 13.0736 14.7141 12.5813 15.2063C12.0891 15.6986 11.8125 16.3663 11.8125 17.0625C11.8125 17.7587 12.0891 18.4264 12.5813 18.9187C13.0736 19.4109 13.7413 19.6875 14.4375 19.6875C15.1337 19.6875 15.8014 19.4109 16.2937 18.9187C16.7859 18.4264 17.0625 17.7587 17.0625 17.0625C17.0625 16.3663 16.7859 15.6986 16.2937 15.2063C15.8014 14.7141 15.1337 14.4375 14.4375 14.4375Z" fill="#545454"/>
</svg>
