<svg width="45" height="45" viewBox="0 0 45 45" fill="none" xmlns="http://www.w3.org/2000/svg">
<path d="M35.8594 28.3594C35.5156 28.0156 35.3356 27.5781 35.3194 27.0469C35.3031 26.5156 35.4675 26.0312 35.8125 25.5937C36.7813 24.4062 37.5388 23.07 38.085 21.585C38.6313 20.1 38.905 18.53 38.9062 16.875C38.9062 15.25 38.6325 13.7031 38.085 12.2344C37.5375 10.7656 36.78 9.4375 35.8125 8.25C35.4688 7.8125 35.2969 7.32812 35.2969 6.79687C35.2969 6.26562 35.4844 5.8125 35.8594 5.4375C36.2969 5 36.8206 4.78125 37.4306 4.78125C38.0406 4.78125 38.5325 5 38.9062 5.4375C40.2187 7.03125 41.25 8.79687 42 10.7344C42.75 12.6719 43.125 14.7187 43.125 16.875C43.125 19.0312 42.75 21.0781 42 23.0156C41.25 24.9531 40.2187 26.7187 38.9062 28.3125C38.5312 28.75 38.0394 28.9769 37.4306 28.9931C36.8219 29.0094 36.2981 28.7981 35.8594 28.3594ZM29.8125 22.3125C29.4687 21.9687 29.2731 21.5231 29.2256 20.9756C29.1781 20.4281 29.3112 19.8894 29.625 19.3594C29.8437 18.9844 30.0081 18.5862 30.1181 18.165C30.2281 17.7437 30.2825 17.3137 30.2812 16.875C30.2812 16.4375 30.2269 16.0075 30.1181 15.585C30.0094 15.1625 29.845 14.7644 29.625 14.3906C29.3125 13.8594 29.1794 13.3206 29.2256 12.7744C29.2719 12.2281 29.4675 11.7825 29.8125 11.4375C30.25 11 30.7812 10.7894 31.4062 10.8056C32.0312 10.8219 32.5156 11.0637 32.8594 11.5312C33.3906 12.3125 33.8125 13.1487 34.125 14.04C34.4375 14.9312 34.5938 15.8762 34.5938 16.875C34.5938 17.875 34.4375 18.8206 34.125 19.7119C33.8125 20.6031 33.3906 21.4387 32.8594 22.2187C32.5156 22.6875 32.0312 22.93 31.4062 22.9462C30.7812 22.9625 30.25 22.7512 29.8125 22.3125ZM16.875 24.375C14.8125 24.375 13.0469 23.6406 11.5781 22.1719C10.1094 20.7031 9.375 18.9375 9.375 16.875C9.375 14.8125 10.1094 13.0469 11.5781 11.5781C13.0469 10.1094 14.8125 9.375 16.875 9.375C18.9375 9.375 20.7031 10.1094 22.1719 11.5781C23.6406 13.0469 24.375 14.8125 24.375 16.875C24.375 18.9375 23.6406 20.7031 22.1719 22.1719C20.7031 23.6406 18.9375 24.375 16.875 24.375ZM3.75 39.375C3.21875 39.375 2.77312 39.195 2.41312 38.835C2.05312 38.475 1.87375 38.03 1.875 37.5V34.125C1.875 33.0937 2.14062 32.125 2.67187 31.2187C3.20312 30.3125 3.9375 29.625 4.875 29.1562C6.46875 28.3437 8.26562 27.6562 10.2656 27.0937C12.2656 26.5312 14.4687 26.25 16.875 26.25C19.2812 26.25 21.4844 26.5312 23.4844 27.0937C25.4844 27.6562 27.2812 28.3437 28.875 29.1562C29.8125 29.625 30.5469 30.3125 31.0781 31.2187C31.6094 32.125 31.875 33.0937 31.875 34.125V37.5C31.875 38.0312 31.695 38.4769 31.335 38.8369C30.975 39.1969 30.53 39.3762 30 39.375H3.75ZM5.625 35.625H28.125V34.125C28.125 33.7812 28.0388 33.4687 27.8663 33.1875C27.6938 32.9062 27.4675 32.6875 27.1875 32.5312C26.0625 31.9687 24.6169 31.4062 22.8506 30.8437C21.0844 30.2812 19.0925 30 16.875 30C14.6562 30 12.6637 30.2812 10.8975 30.8437C9.13125 31.4062 7.68625 31.9687 6.5625 32.5312C6.28125 32.6875 6.05437 32.9062 5.88187 33.1875C5.70937 33.4687 5.62375 33.7812 5.625 34.125V35.625ZM16.875 20.625C17.9062 20.625 18.7894 20.2575 19.5244 19.5225C20.2594 18.7875 20.6262 17.905 20.625 16.875C20.625 15.8437 20.2575 14.9606 19.5225 14.2256C18.7875 13.4906 17.905 13.1237 16.875 13.125C15.8437 13.125 14.9606 13.4925 14.2256 14.2275C13.4906 14.9625 13.1237 15.845 13.125 16.875C13.125 17.9062 13.4925 18.7894 14.2275 19.5244C14.9625 20.2594 15.845 20.6262 16.875 20.625Z" fill="#545454"/>
</svg>
